<!-- <svg width="205" height="32" viewBox="0 0 205 32" fill="none" xmlns="http://www.w3.org/2000/svg">
<path d="M6.63636 7.72727L11.3295 15.6591H11.5114L16.2273 7.72727H21.7841L14.6818 19.3636L21.9432 31H16.2841L11.5114 23.0568H11.3295L6.55682 31H0.920455L8.20455 19.3636L1.05682 7.72727H6.63636ZM24.8977 31V7.72727H40.5795V11.7841H29.8182V17.3295H39.7727V21.3864H29.8182V26.9432H40.625V31H24.8977ZM51.8977 31V7.72727H61.2159C62.928 7.72727 64.3561 7.98106 65.5 8.48864C66.6439 8.99621 67.5038 9.70076 68.0795 10.6023C68.6553 11.4962 68.9432 12.5265 68.9432 13.6932C68.9432 14.6023 68.7614 15.4015 68.3977 16.0909C68.0341 16.7727 67.5341 17.3333 66.8977 17.7727C66.2689 18.2045 65.5492 18.5114 64.7386 18.6932V18.9205C65.625 18.9583 66.4545 19.2083 67.2273 19.6705C68.0076 20.1326 68.6402 20.7803 69.125 21.6136C69.6098 22.4394 69.8523 23.4242 69.8523 24.5682C69.8523 25.803 69.5455 26.9053 68.9318 27.875C68.3258 28.8371 67.428 29.5985 66.2386 30.1591C65.0492 30.7197 63.5833 31 61.8409 31H51.8977ZM56.8182 26.9773H60.8295C62.2008 26.9773 63.2008 26.7159 63.8295 26.1932C64.4583 25.6629 64.7727 24.9583 64.7727 24.0795C64.7727 23.4356 64.6174 22.8674 64.3068 22.375C63.9962 21.8826 63.553 21.4962 62.9773 21.2159C62.4091 20.9356 61.7311 20.7955 60.9432 20.7955H56.8182V26.9773ZM56.8182 17.4659H60.4659C61.1402 17.4659 61.7386 17.3485 62.2614 17.1136C62.7917 16.8712 63.2083 16.5303 63.5114 16.0909C63.822 15.6515 63.9773 15.125 63.9773 14.5114C63.9773 13.6705 63.678 12.9924 63.0795 12.4773C62.4886 11.9621 61.6477 11.7045 60.5568 11.7045H56.8182V17.4659ZM84.1562 23.5682V13.5455H88.9972V31H84.3494V27.8295H84.1676C83.7737 28.8523 83.1184 29.6742 82.2017 30.2955C81.2926 30.9167 80.1828 31.2273 78.8722 31.2273C77.7055 31.2273 76.679 30.9621 75.7926 30.4318C74.9063 29.9015 74.2131 29.1477 73.7131 28.1705C73.2206 27.1932 72.9706 26.0227 72.9631 24.6591V13.5455H77.804V23.7955C77.8116 24.8258 78.0881 25.6402 78.6335 26.2386C79.179 26.8371 79.91 27.1364 80.8267 27.1364C81.41 27.1364 81.9555 27.0038 82.4631 26.7386C82.9706 26.4659 83.3797 26.0644 83.6903 25.5341C84.0085 25.0038 84.1638 24.3485 84.1562 23.5682ZM97.2557 25.9773L97.267 20.1705H97.9716L103.562 13.5455H109.119L101.608 22.3182H100.46L97.2557 25.9773ZM92.8693 31V7.72727H97.7102V31H92.8693ZM103.778 31L98.642 23.3977L101.869 19.9773L109.449 31H103.778ZM116.335 20.9091V31H111.494V7.72727H116.199V16.625H116.403C116.797 15.5947 117.434 14.7879 118.312 14.2045C119.191 13.6136 120.294 13.3182 121.619 13.3182C122.831 13.3182 123.888 13.5833 124.79 14.1136C125.699 14.6364 126.403 15.3902 126.903 16.375C127.411 17.3523 127.661 18.5227 127.653 19.8864V31H122.812V20.75C122.82 19.6742 122.547 18.8371 121.994 18.2386C121.449 17.6402 120.684 17.3409 119.699 17.3409C119.04 17.3409 118.456 17.4811 117.949 17.7614C117.449 18.0417 117.055 18.4508 116.767 18.9886C116.487 19.5189 116.343 20.1591 116.335 20.9091ZM139.349 31.3409C137.584 31.3409 136.058 30.9659 134.77 30.2159C133.49 29.4583 132.501 28.4053 131.804 27.0568C131.107 25.7008 130.759 24.1288 130.759 22.3409C130.759 20.5379 131.107 18.9621 131.804 17.6136C132.501 16.2576 133.49 15.2045 134.77 14.4545C136.058 13.697 137.584 13.3182 139.349 13.3182C141.115 13.3182 142.637 13.697 143.918 14.4545C145.205 15.2045 146.198 16.2576 146.895 17.6136C147.592 18.9621 147.94 20.5379 147.94 22.3409C147.94 24.1288 147.592 25.7008 146.895 27.0568C146.198 28.4053 145.205 29.4583 143.918 30.2159C142.637 30.9659 141.115 31.3409 139.349 31.3409ZM139.372 27.5909C140.175 27.5909 140.846 27.3636 141.384 26.9091C141.921 26.447 142.327 25.8182 142.599 25.0227C142.88 24.2273 143.02 23.322 143.02 22.3068C143.02 21.2917 142.88 20.3864 142.599 19.5909C142.327 18.7955 141.921 18.1667 141.384 17.7045C140.846 17.2424 140.175 17.0114 139.372 17.0114C138.562 17.0114 137.88 17.2424 137.327 17.7045C136.781 18.1667 136.368 18.7955 136.088 19.5909C135.815 20.3864 135.679 21.2917 135.679 22.3068C135.679 23.322 135.815 24.2273 136.088 25.0227C136.368 25.8182 136.781 26.447 137.327 26.9091C137.88 27.3636 138.562 27.5909 139.372 27.5909ZM165.611 18.5227L161.179 18.7955C161.103 18.4167 160.94 18.0758 160.69 17.7727C160.44 17.4621 160.111 17.2159 159.702 17.0341C159.3 16.8447 158.819 16.75 158.259 16.75C157.509 16.75 156.876 16.9091 156.361 17.2273C155.846 17.5379 155.588 17.9545 155.588 18.4773C155.588 18.8939 155.755 19.2462 156.088 19.5341C156.421 19.822 156.993 20.053 157.804 20.2273L160.963 20.8636C162.66 21.2121 163.925 21.7727 164.759 22.5455C165.592 23.3182 166.009 24.3333 166.009 25.5909C166.009 26.7348 165.671 27.7386 164.997 28.6023C164.33 29.4659 163.414 30.1402 162.247 30.625C161.088 31.1023 159.751 31.3409 158.236 31.3409C155.925 31.3409 154.084 30.8598 152.713 29.8977C151.349 28.928 150.55 27.6098 150.315 25.9432L155.077 25.6932C155.221 26.3977 155.569 26.9356 156.122 27.3068C156.675 27.6705 157.384 27.8523 158.247 27.8523C159.096 27.8523 159.777 27.6894 160.293 27.3636C160.815 27.0303 161.08 26.6023 161.088 26.0795C161.08 25.6402 160.895 25.2803 160.531 25C160.168 24.7121 159.607 24.4924 158.849 24.3409L155.827 23.7386C154.122 23.3977 152.853 22.8068 152.02 21.9659C151.194 21.125 150.781 20.053 150.781 18.75C150.781 17.6288 151.084 16.6629 151.69 15.8523C152.304 15.0417 153.164 14.4167 154.27 13.9773C155.384 13.5379 156.687 13.3182 158.179 13.3182C160.384 13.3182 162.118 13.7841 163.384 14.7159C164.656 15.6477 165.399 16.9167 165.611 18.5227ZM169.057 31V13.5455H173.898V31H169.057ZM171.489 11.2955C170.769 11.2955 170.152 11.0568 169.636 10.5795C169.129 10.0947 168.875 9.51515 168.875 8.84091C168.875 8.17424 169.129 7.60227 169.636 7.125C170.152 6.64015 170.769 6.39773 171.489 6.39773C172.208 6.39773 172.822 6.64015 173.33 7.125C173.845 7.60227 174.102 8.17424 174.102 8.84091C174.102 9.51515 173.845 10.0947 173.33 10.5795C172.822 11.0568 172.208 11.2955 171.489 11.2955ZM182.616 20.9091V31H177.776V13.5455H182.389V16.625H182.594C182.98 15.6098 183.628 14.8068 184.537 14.2159C185.446 13.6174 186.548 13.3182 187.844 13.3182C189.056 13.3182 190.113 13.5833 191.014 14.1136C191.916 14.6439 192.616 15.4015 193.116 16.3864C193.616 17.3636 193.866 18.5303 193.866 19.8864V31H189.026V20.75C189.033 19.6818 188.76 18.8485 188.207 18.25C187.654 17.6439 186.893 17.3409 185.923 17.3409C185.272 17.3409 184.696 17.4811 184.196 17.7614C183.704 18.0417 183.317 18.4508 183.037 18.9886C182.764 19.5189 182.624 20.1591 182.616 20.9091ZM197.682 31V13.5455H202.523V31H197.682ZM200.114 11.2955C199.394 11.2955 198.777 11.0568 198.261 10.5795C197.754 10.0947 197.5 9.51515 197.5 8.84091C197.5 8.17424 197.754 7.60227 198.261 7.125C198.777 6.64015 199.394 6.39773 200.114 6.39773C200.833 6.39773 201.447 6.64015 201.955 7.125C202.47 7.60227 202.727 8.17424 202.727 8.84091C202.727 9.51515 202.47 10.0947 201.955 10.5795C201.447 11.0568 200.833 11.2955 200.114 11.2955Z" fill="black"/>
<path d="M37 10H46H55" stroke="black" stroke-width="4"/>
</svg> -->


<svg id="Layer_1" data-name="Layer 1" xmlns="http://www.w3.org/2000/svg" xmlns:xlink="http://www.w3.org/1999/xlink" viewBox="0 0 430 63.2"><defs><style>.cls-1{fill:#fff;}.cls-2{mask:url(#mask);}.cls-3,.cls-4{fill:none;}.cls-3{stroke:#000;}.cls-3,.cls-7{stroke-width:2px;}.cls-5{fill:#006838;}.cls-6{mask:url(#mask-7);}.cls-7{fill:#2b3990;stroke:#2b3990;}</style><mask id="mask" x="136.89" y="0" width="292.99" height="63.03" maskUnits="userSpaceOnUse"><g id="path-2-outside-1_123_9" data-name="path-2-outside-1 123 9"><rect class="cls-1" x="136.89" width="292.99" height="63.03"/><path d="M178.16,17.2V52.74h-14V47.32a12.53,12.53,0,0,1-4.41,4.1A12.71,12.71,0,0,1,153.27,53a11.87,11.87,0,0,1-9.58-4.1q-3.41-4.09-3.41-11.09V17.2h13.93V36a5.85,5.85,0,0,0,1.33,4,4.8,4.8,0,0,0,3.65,1.45,4.69,4.69,0,0,0,3.66-1.45,5.89,5.89,0,0,0,1.32-4V17.2Z"/><path d="M207.24,52.74l-8.76-14.18V52.74h-14V6.1h14V30.49l8.88-13.29h16.26L210.33,35.1l13.61,17.64Z"/><path d="M252,16.94q6.12,0,9.52,4.1T265,32.13V52.74H251V33.9a5.47,5.47,0,0,0-1.39-4,4.52,4.52,0,0,0-3.59-1.52,4.62,4.62,0,0,0-3.66,1.52,5.66,5.66,0,0,0-1.32,4V52.74h-14V6.1h14V22.62a12.59,12.59,0,0,1,4.35-4.1A13,13,0,0,1,252,16.94Z"/><path d="M287.92,53.18a20.81,20.81,0,0,1-9.65-2.2,16.57,16.57,0,0,1-6.74-6.3,19.1,19.1,0,0,1-2.4-9.71,18.71,18.71,0,0,1,2.4-9.64A16.41,16.41,0,0,1,278.27,19a22.15,22.15,0,0,1,19.29,0,16,16,0,0,1,6.68,6.37A18.35,18.35,0,0,1,306.7,35a18.74,18.74,0,0,1-2.46,9.71,16.11,16.11,0,0,1-6.68,6.3A20.77,20.77,0,0,1,287.92,53.18Zm0-12.1a4.16,4.16,0,0,0,3.27-1.51,6.93,6.93,0,0,0,1.33-4.6,6.69,6.69,0,0,0-1.33-4.54,4.2,4.2,0,0,0-6.55,0A6.74,6.74,0,0,0,283.32,35a7.23,7.23,0,0,0,1.26,4.6A4.23,4.23,0,0,0,287.92,41.08Z"/><path d="M326.92,53.18A23,23,0,0,1,318,51.55,15.14,15.14,0,0,1,311.85,47a12.12,12.12,0,0,1-2.58-6.56h13.42A3.33,3.33,0,0,0,324,42.78a4.94,4.94,0,0,0,2.83.76,2.93,2.93,0,0,0,1.7-.44,1.51,1.51,0,0,0,.63-1.2,1.76,1.76,0,0,0-1.32-1.7,30.82,30.82,0,0,0-4.47-1.13A47.79,47.79,0,0,1,317,37.43a10.5,10.5,0,0,1-4.35-3,8.83,8.83,0,0,1-1.83-5.92,10.7,10.7,0,0,1,1.71-5.93,11.55,11.55,0,0,1,5.16-4.22A19.57,19.57,0,0,1,326,16.75q7.18,0,11.22,3.53a14.48,14.48,0,0,1,4.92,9.21H329.69a3.58,3.58,0,0,0-1.32-2.21,4.17,4.17,0,0,0-2.71-.82,2.63,2.63,0,0,0-1.64.44,1.33,1.33,0,0,0-.57,1.2,1.81,1.81,0,0,0,1.32,1.64A29.45,29.45,0,0,0,329,30.81a45.79,45.79,0,0,1,6.49,1.7,10.57,10.57,0,0,1,4.6,3.28,9.35,9.35,0,0,1,2,6.3,9.47,9.47,0,0,1-1.82,5.67,12.18,12.18,0,0,1-5.3,4A20.44,20.44,0,0,1,326.92,53.18Z"/><path d="M354.66,14.36a8.5,8.5,0,0,1-5.87-2,6.28,6.28,0,0,1-2.2-4.91,6.35,6.35,0,0,1,2.2-5,8.34,8.34,0,0,1,5.87-2,8.22,8.22,0,0,1,5.79,2,6.36,6.36,0,0,1,2.21,5,6.29,6.29,0,0,1-2.21,4.91A8.37,8.37,0,0,1,354.66,14.36Zm6.93,2.84V52.74h-14V17.2Z"/><path d="M392.8,16.94q6.12,0,9.52,4.1t3.47,11.09V52.74H391.86V33.9a5.47,5.47,0,0,0-1.39-4,4.52,4.52,0,0,0-3.59-1.52,4.63,4.63,0,0,0-3.66,1.52,5.66,5.66,0,0,0-1.32,4V52.74h-14V17.2h14v5.42a12.59,12.59,0,0,1,4.35-4.1A13,13,0,0,1,392.8,16.94Z"/><path d="M418.92,14.36a8.5,8.5,0,0,1-5.87-2,6.28,6.28,0,0,1-2.2-4.91,6.35,6.35,0,0,1,2.2-5,8.34,8.34,0,0,1,5.87-2,8.22,8.22,0,0,1,5.79,2,6.36,6.36,0,0,1,2.21,5,6.29,6.29,0,0,1-2.21,4.91A8.37,8.37,0,0,1,418.92,14.36Zm6.93,2.84V52.74h-14V17.2Z"/><path d="M137.38,59.05H429V62.2H137.38Z"/></g></mask><mask id="mask-7" x="136.38" y="0" width="293.62" height="63.2" maskUnits="userSpaceOnUse"><g id="path-2-outside-1_123_9-7" data-name="path-2-outside-1 123 9"><rect class="cls-1" x="136.89" width="292.99" height="63.03"/><path d="M178.16,17.2V52.74h-14V47.32a12.53,12.53,0,0,1-4.41,4.1A12.71,12.71,0,0,1,153.27,53a11.87,11.87,0,0,1-9.58-4.1q-3.41-4.09-3.41-11.09V17.2h13.93V36a5.85,5.85,0,0,0,1.33,4,4.8,4.8,0,0,0,3.65,1.45,4.69,4.69,0,0,0,3.66-1.45,5.89,5.89,0,0,0,1.32-4V17.2Z"/><path d="M207.24,52.74l-8.76-14.18V52.74h-14V6.1h14V30.49l8.88-13.29h16.26L210.33,35.1l13.61,17.64Z"/><path d="M252,16.94q6.12,0,9.52,4.1T265,32.13V52.74H251V33.9a5.47,5.47,0,0,0-1.39-4,4.52,4.52,0,0,0-3.59-1.52,4.62,4.62,0,0,0-3.66,1.52,5.66,5.66,0,0,0-1.32,4V52.74h-14V6.1h14V22.62a12.59,12.59,0,0,1,4.35-4.1A13,13,0,0,1,252,16.94Z"/><path d="M287.92,53.18a20.81,20.81,0,0,1-9.65-2.2,16.57,16.57,0,0,1-6.74-6.3,19.1,19.1,0,0,1-2.4-9.71,18.71,18.71,0,0,1,2.4-9.64A16.41,16.41,0,0,1,278.27,19a22.15,22.15,0,0,1,19.29,0,16,16,0,0,1,6.68,6.37A18.35,18.35,0,0,1,306.7,35a18.74,18.74,0,0,1-2.46,9.71,16.11,16.11,0,0,1-6.68,6.3A20.77,20.77,0,0,1,287.92,53.18Zm0-12.1a4.16,4.16,0,0,0,3.27-1.51,6.93,6.93,0,0,0,1.33-4.6,6.69,6.69,0,0,0-1.33-4.54,4.2,4.2,0,0,0-6.55,0A6.74,6.74,0,0,0,283.32,35a7.23,7.23,0,0,0,1.26,4.6A4.23,4.23,0,0,0,287.92,41.08Z"/><path d="M326.92,53.18A23,23,0,0,1,318,51.55,15.14,15.14,0,0,1,311.85,47a12.12,12.12,0,0,1-2.58-6.56h13.42A3.33,3.33,0,0,0,324,42.78a4.94,4.94,0,0,0,2.83.76,2.93,2.93,0,0,0,1.7-.44,1.51,1.51,0,0,0,.63-1.2,1.76,1.76,0,0,0-1.32-1.7,30.82,30.82,0,0,0-4.47-1.13A47.79,47.79,0,0,1,317,37.43a10.5,10.5,0,0,1-4.35-3,8.83,8.83,0,0,1-1.83-5.92,10.7,10.7,0,0,1,1.71-5.93,11.55,11.55,0,0,1,5.16-4.22A19.57,19.57,0,0,1,326,16.75q7.18,0,11.22,3.53a14.48,14.48,0,0,1,4.92,9.21H329.69a3.58,3.58,0,0,0-1.32-2.21,4.17,4.17,0,0,0-2.71-.82,2.63,2.63,0,0,0-1.64.44,1.33,1.33,0,0,0-.57,1.2,1.81,1.81,0,0,0,1.32,1.64A29.45,29.45,0,0,0,329,30.81a45.79,45.79,0,0,1,6.49,1.7,10.57,10.57,0,0,1,4.6,3.28,9.35,9.35,0,0,1,2,6.3,9.47,9.47,0,0,1-1.82,5.67,12.18,12.18,0,0,1-5.3,4A20.44,20.44,0,0,1,326.92,53.18Z"/><path d="M354.66,14.36a8.5,8.5,0,0,1-5.87-2,6.28,6.28,0,0,1-2.2-4.91,6.35,6.35,0,0,1,2.2-5,8.34,8.34,0,0,1,5.87-2,8.22,8.22,0,0,1,5.79,2,6.36,6.36,0,0,1,2.21,5,6.29,6.29,0,0,1-2.21,4.91A8.37,8.37,0,0,1,354.66,14.36Zm6.93,2.84V52.74h-14V17.2Z"/><path d="M392.8,16.94q6.12,0,9.52,4.1t3.47,11.09V52.74H391.86V33.9a5.47,5.47,0,0,0-1.39-4,4.52,4.52,0,0,0-3.59-1.52,4.63,4.63,0,0,0-3.66,1.52,5.66,5.66,0,0,0-1.32,4V52.74h-14V17.2h14v5.42a12.59,12.59,0,0,1,4.35-4.1A13,13,0,0,1,392.8,16.94Z"/><path d="M418.92,14.36a8.5,8.5,0,0,1-5.87-2,6.28,6.28,0,0,1-2.2-4.91,6.35,6.35,0,0,1,2.2-5,8.34,8.34,0,0,1,5.87-2,8.22,8.22,0,0,1,5.79,2,6.36,6.36,0,0,1,2.21,5,6.29,6.29,0,0,1-2.21,4.91A8.37,8.37,0,0,1,418.92,14.36Zm6.93,2.84V52.74h-14V17.2Z"/><path d="M137.38,59.05H429V62.2H137.38Z"/></g></mask></defs><g class="cls-2"><path class="cls-3" d="M178.16,17.2V52.74h-14V47.32a12.53,12.53,0,0,1-4.41,4.1A12.71,12.71,0,0,1,153.27,53a11.87,11.87,0,0,1-9.58-4.1q-3.41-4.09-3.41-11.09V17.2h13.93V36a5.85,5.85,0,0,0,1.33,4,4.8,4.8,0,0,0,3.65,1.45,4.69,4.69,0,0,0,3.66-1.45,5.89,5.89,0,0,0,1.32-4V17.2Z"/></g><g class="cls-2"><path class="cls-3" d="M207.24,52.74l-8.76-14.18V52.74h-14V6.1h14V30.49l8.88-13.29h16.26L210.33,35.1l13.61,17.64Z"/></g><g class="cls-2"><path class="cls-3" d="M252,16.94q6.12,0,9.52,4.1T265,32.13V52.74H251V33.9a5.47,5.47,0,0,0-1.39-4,4.52,4.52,0,0,0-3.59-1.52,4.62,4.62,0,0,0-3.66,1.52,5.66,5.66,0,0,0-1.32,4V52.74h-14V6.1h14V22.62a12.59,12.59,0,0,1,4.35-4.1A13,13,0,0,1,252,16.94Z"/></g><g class="cls-2"><path class="cls-3" d="M287.92,53.18a20.81,20.81,0,0,1-9.65-2.2,16.57,16.57,0,0,1-6.74-6.3,19.1,19.1,0,0,1-2.4-9.71,18.71,18.71,0,0,1,2.4-9.64A16.41,16.41,0,0,1,278.27,19a22.15,22.15,0,0,1,19.29,0,16,16,0,0,1,6.68,6.37A18.35,18.35,0,0,1,306.7,35a18.74,18.74,0,0,1-2.46,9.71,16.11,16.11,0,0,1-6.68,6.3A20.77,20.77,0,0,1,287.92,53.18Zm0-12.1a4.16,4.16,0,0,0,3.27-1.51,6.93,6.93,0,0,0,1.33-4.6,6.69,6.69,0,0,0-1.33-4.54,4.2,4.2,0,0,0-6.55,0A6.74,6.74,0,0,0,283.32,35a7.23,7.23,0,0,0,1.26,4.6A4.23,4.23,0,0,0,287.92,41.08Z"/></g><g class="cls-2"><path class="cls-3" d="M326.92,53.18A23,23,0,0,1,318,51.55,15.14,15.14,0,0,1,311.85,47a12.12,12.12,0,0,1-2.58-6.56h13.42A3.33,3.33,0,0,0,324,42.78a4.94,4.94,0,0,0,2.83.76,2.93,2.93,0,0,0,1.7-.44,1.51,1.51,0,0,0,.63-1.2,1.76,1.76,0,0,0-1.32-1.7,30.82,30.82,0,0,0-4.47-1.13A47.79,47.79,0,0,1,317,37.43a10.5,10.5,0,0,1-4.35-3,8.83,8.83,0,0,1-1.83-5.92,10.7,10.7,0,0,1,1.71-5.93,11.55,11.55,0,0,1,5.16-4.22A19.57,19.57,0,0,1,326,16.75q7.18,0,11.22,3.53a14.48,14.48,0,0,1,4.92,9.21H329.69a3.58,3.58,0,0,0-1.32-2.21,4.17,4.17,0,0,0-2.71-.82,2.63,2.63,0,0,0-1.64.44,1.33,1.33,0,0,0-.57,1.2,1.81,1.81,0,0,0,1.32,1.64A29.45,29.45,0,0,0,329,30.81a45.79,45.79,0,0,1,6.49,1.7,10.57,10.57,0,0,1,4.6,3.28,9.35,9.35,0,0,1,2,6.3,9.47,9.47,0,0,1-1.82,5.67,12.18,12.18,0,0,1-5.3,4A20.44,20.44,0,0,1,326.92,53.18Z"/></g><rect class="cls-3" x="347.6" y="17.2" width="13.99" height="35.55"/><rect class="cls-4" x="136.89" width="292.99" height="63.03"/><path class="cls-4" d="M178.16,17.2V52.74h-14V47.32a12.53,12.53,0,0,1-4.41,4.1A12.71,12.71,0,0,1,153.27,53a11.87,11.87,0,0,1-9.58-4.1q-3.41-4.09-3.41-11.09V17.2h13.93V36a5.85,5.85,0,0,0,1.33,4,4.8,4.8,0,0,0,3.65,1.45,4.69,4.69,0,0,0,3.66-1.45,5.89,5.89,0,0,0,1.32-4V17.2Z"/><path class="cls-4" d="M207.24,52.74l-8.76-14.18V52.74h-14V6.1h14V30.49l8.88-13.29h16.26L210.33,35.1l13.61,17.64Z"/><path class="cls-4" d="M252,16.94q6.12,0,9.52,4.1T265,32.13V52.74H251V33.9a5.47,5.47,0,0,0-1.39-4,4.52,4.52,0,0,0-3.59-1.52,4.62,4.62,0,0,0-3.66,1.52,5.66,5.66,0,0,0-1.32,4V52.74h-14V6.1h14V22.62a12.59,12.59,0,0,1,4.35-4.1A13,13,0,0,1,252,16.94Z"/><path class="cls-4" d="M287.92,53.18a20.81,20.81,0,0,1-9.65-2.2,16.57,16.57,0,0,1-6.74-6.3,19.1,19.1,0,0,1-2.4-9.71,18.71,18.71,0,0,1,2.4-9.64A16.41,16.41,0,0,1,278.27,19a22.15,22.15,0,0,1,19.29,0,16,16,0,0,1,6.68,6.37A18.35,18.35,0,0,1,306.7,35a18.74,18.74,0,0,1-2.46,9.71,16.11,16.11,0,0,1-6.68,6.3A20.77,20.77,0,0,1,287.92,53.18Zm0-12.1a4.16,4.16,0,0,0,3.27-1.51,6.93,6.93,0,0,0,1.33-4.6,6.69,6.69,0,0,0-1.33-4.54,4.2,4.2,0,0,0-6.55,0A6.74,6.74,0,0,0,283.32,35a7.23,7.23,0,0,0,1.26,4.6A4.23,4.23,0,0,0,287.92,41.08Z"/><path class="cls-4" d="M326.92,53.18A23,23,0,0,1,318,51.55,15.14,15.14,0,0,1,311.85,47a12.12,12.12,0,0,1-2.58-6.56h13.42A3.33,3.33,0,0,0,324,42.78a4.94,4.94,0,0,0,2.83.76,2.93,2.93,0,0,0,1.7-.44,1.51,1.51,0,0,0,.63-1.2,1.76,1.76,0,0,0-1.32-1.7,30.82,30.82,0,0,0-4.47-1.13A47.79,47.79,0,0,1,317,37.43a10.5,10.5,0,0,1-4.35-3,8.83,8.83,0,0,1-1.83-5.92,10.7,10.7,0,0,1,1.71-5.93,11.55,11.55,0,0,1,5.16-4.22A19.57,19.57,0,0,1,326,16.75q7.18,0,11.22,3.53a14.48,14.48,0,0,1,4.92,9.21H329.69a3.58,3.58,0,0,0-1.32-2.21,4.17,4.17,0,0,0-2.71-.82,2.63,2.63,0,0,0-1.64.44,1.33,1.33,0,0,0-.57,1.2,1.81,1.81,0,0,0,1.32,1.64A29.45,29.45,0,0,0,329,30.81a45.79,45.79,0,0,1,6.49,1.7,10.57,10.57,0,0,1,4.6,3.28,9.35,9.35,0,0,1,2,6.3,9.47,9.47,0,0,1-1.82,5.67,12.18,12.18,0,0,1-5.3,4A20.44,20.44,0,0,1,326.92,53.18Z"/><rect class="cls-4" x="347.6" y="17.2" width="13.99" height="35.55"/><path class="cls-4" d="M392.8,16.94q6.12,0,9.52,4.1t3.47,11.09V52.74H391.86V33.9a5.47,5.47,0,0,0-1.39-4,4.52,4.52,0,0,0-3.59-1.52,4.63,4.63,0,0,0-3.66,1.52,5.66,5.66,0,0,0-1.32,4V52.74h-14V17.2h14v5.42a12.59,12.59,0,0,1,4.35-4.1A13,13,0,0,1,392.8,16.94Z"/><path class="cls-4" d="M418.92,14.36a8.5,8.5,0,0,1-5.87-2,6.28,6.28,0,0,1-2.2-4.91,6.35,6.35,0,0,1,2.2-5,8.34,8.34,0,0,1,5.87-2,8.22,8.22,0,0,1,5.79,2,6.36,6.36,0,0,1,2.21,5,6.29,6.29,0,0,1-2.21,4.91A8.37,8.37,0,0,1,418.92,14.36Zm6.93,2.84V52.74h-14V17.2Z"/><path class="cls-4" d="M137.38,59.05H429V62.2H137.38Z"/><g class="cls-2"><path class="cls-3" d="M392.8,16.94q6.12,0,9.52,4.1t3.47,11.09V52.74H391.86V33.9a5.47,5.47,0,0,0-1.39-4,4.52,4.52,0,0,0-3.59-1.52,4.63,4.63,0,0,0-3.66,1.52,5.66,5.66,0,0,0-1.32,4V52.74h-14V17.2h14v5.42a12.59,12.59,0,0,1,4.35-4.1A13,13,0,0,1,392.8,16.94Z"/></g><rect class="cls-3" x="411.86" y="17.2" width="13.99" height="35.55"/><rect class="cls-4" x="136.89" width="292.99" height="63.03"/><path class="cls-4" d="M178.16,17.2V52.74h-14V47.32a12.53,12.53,0,0,1-4.41,4.1A12.71,12.71,0,0,1,153.27,53a11.87,11.87,0,0,1-9.58-4.1q-3.41-4.09-3.41-11.09V17.2h13.93V36a5.85,5.85,0,0,0,1.33,4,4.8,4.8,0,0,0,3.65,1.45,4.69,4.69,0,0,0,3.66-1.45,5.89,5.89,0,0,0,1.32-4V17.2Z"/><path class="cls-4" d="M207.24,52.74l-8.76-14.18V52.74h-14V6.1h14V30.49l8.88-13.29h16.26L210.33,35.1l13.61,17.64Z"/><path class="cls-4" d="M252,16.94q6.12,0,9.52,4.1T265,32.13V52.74H251V33.9a5.47,5.47,0,0,0-1.39-4,4.52,4.52,0,0,0-3.59-1.52,4.62,4.62,0,0,0-3.66,1.52,5.66,5.66,0,0,0-1.32,4V52.74h-14V6.1h14V22.62a12.59,12.59,0,0,1,4.35-4.1A13,13,0,0,1,252,16.94Z"/><path class="cls-4" d="M287.92,53.18a20.81,20.81,0,0,1-9.65-2.2,16.57,16.57,0,0,1-6.74-6.3,19.1,19.1,0,0,1-2.4-9.71,18.71,18.71,0,0,1,2.4-9.64A16.41,16.41,0,0,1,278.27,19a22.15,22.15,0,0,1,19.29,0,16,16,0,0,1,6.68,6.37A18.35,18.35,0,0,1,306.7,35a18.74,18.74,0,0,1-2.46,9.71,16.11,16.11,0,0,1-6.68,6.3A20.77,20.77,0,0,1,287.92,53.18Zm0-12.1a4.16,4.16,0,0,0,3.27-1.51,6.93,6.93,0,0,0,1.33-4.6,6.69,6.69,0,0,0-1.33-4.54,4.2,4.2,0,0,0-6.55,0A6.74,6.74,0,0,0,283.32,35a7.23,7.23,0,0,0,1.26,4.6A4.23,4.23,0,0,0,287.92,41.08Z"/><path class="cls-4" d="M326.92,53.18A23,23,0,0,1,318,51.55,15.14,15.14,0,0,1,311.85,47a12.12,12.12,0,0,1-2.58-6.56h13.42A3.33,3.33,0,0,0,324,42.78a4.94,4.94,0,0,0,2.83.76,2.93,2.93,0,0,0,1.7-.44,1.51,1.51,0,0,0,.63-1.2,1.76,1.76,0,0,0-1.32-1.7,30.82,30.82,0,0,0-4.47-1.13A47.79,47.79,0,0,1,317,37.43a10.5,10.5,0,0,1-4.35-3,8.83,8.83,0,0,1-1.83-5.92,10.7,10.7,0,0,1,1.71-5.93,11.55,11.55,0,0,1,5.16-4.22A19.57,19.57,0,0,1,326,16.75q7.18,0,11.22,3.53a14.48,14.48,0,0,1,4.92,9.21H329.69a3.58,3.58,0,0,0-1.32-2.21,4.17,4.17,0,0,0-2.71-.82,2.63,2.63,0,0,0-1.64.44,1.33,1.33,0,0,0-.57,1.2,1.81,1.81,0,0,0,1.32,1.64A29.45,29.45,0,0,0,329,30.81a45.79,45.79,0,0,1,6.49,1.7,10.57,10.57,0,0,1,4.6,3.28,9.35,9.35,0,0,1,2,6.3,9.47,9.47,0,0,1-1.82,5.67,12.18,12.18,0,0,1-5.3,4A20.44,20.44,0,0,1,326.92,53.18Z"/><path class="cls-5" d="M354.62,14.36a8.49,8.49,0,0,1-5.86-2,6.28,6.28,0,0,1-2.2-4.91,6.35,6.35,0,0,1,2.2-5,8.33,8.33,0,0,1,5.86-2,8.23,8.23,0,0,1,5.8,2,6.36,6.36,0,0,1,2.21,5,6.29,6.29,0,0,1-2.21,4.91A8.38,8.38,0,0,1,354.62,14.36Z"/><rect class="cls-4" x="347.6" y="17.2" width="13.99" height="35.55"/><path class="cls-4" d="M392.8,16.94q6.12,0,9.52,4.1t3.47,11.09V52.74H391.86V33.9a5.47,5.47,0,0,0-1.39-4,4.52,4.52,0,0,0-3.59-1.52,4.63,4.63,0,0,0-3.66,1.52,5.66,5.66,0,0,0-1.32,4V52.74h-14V17.2h14v5.42a12.59,12.59,0,0,1,4.35-4.1A13,13,0,0,1,392.8,16.94Z"/><path class="cls-5" d="M418.88,14.36a8.49,8.49,0,0,1-5.86-2,6.28,6.28,0,0,1-2.2-4.91,6.35,6.35,0,0,1,2.2-5,8.33,8.33,0,0,1,5.86-2,8.23,8.23,0,0,1,5.8,2,6.36,6.36,0,0,1,2.21,5,6.29,6.29,0,0,1-2.21,4.91A8.38,8.38,0,0,1,418.88,14.36Z"/><rect class="cls-4" x="411.86" y="17.2" width="13.99" height="35.55"/><path class="cls-4" d="M137.38,59.05H429V62.2H137.38Z"/><g class="cls-6"><path class="cls-7" d="M137.38,59.05H429V62.2H137.38Z"/></g><path d="M133.13,34.7a10.46,10.46,0,0,0-6.24-3.91,9.55,9.55,0,0,0,5.42-3.53,10.5,10.5,0,0,0,2.08-6.61c0-3.79-1.3-6.66-3.9-8.64s-6.18-3-10.72-3H97v.12H81V9.05H51.29V53.67H81V42.52H65.28V36.21H79.14V25.69H65.28V20.2H81v-.1H97V53.67H120.4q7.25,0,11.1-3.15t3.9-9.07A10.59,10.59,0,0,0,133.13,34.7ZM111,20.14h5.42a3.94,3.94,0,0,1,2.77.82,2.9,2.9,0,0,1,1,2.4,2.81,2.81,0,0,1-1,2.33,4.21,4.21,0,0,1-2.77.75H111Zm9.14,21.62a4.49,4.49,0,0,1-2.77.69H111v-6.3h6.37q3.72,0,3.72,3.22A2.87,2.87,0,0,1,120.15,41.76Z"/><polygon points="46.96 9.05 31.01 9.05 24.45 20.2 16.58 9.05 0 9.05 15.32 30.67 0.63 53.67 16.58 53.67 23.38 42.08 31.58 53.67 48.15 53.67 32.52 31.61 46.96 9.05"/></svg>